# xmcd
#
# Track frame offsets: 
#        150
#        21638
#        43325
#        68842
#        88073
#        108342
#        140456
#        164635
#        181277
#        199673
#        222411
#
# Disc length: 3195 seconds
#
# Revision: 0
# Processed by: cddbd v1.5.2PL0 Copyright (c) Steve Scherf et al.
# Submitted via: ExactAudioCopy v1.0b6
#
DISCID=a90c790b
DTITLE=24 Pesos - The Boogie Worm
DYEAR=2009
DGENRE=Blues
TTITLE0=Say Nothing
TTITLE1=Coming Back
TTITLE2=A Girl Like You
TTITLE3=Be My Baby
TTITLE4=Still Getting Over
TTITLE5=Give Me Some Love
TTITLE6=Make A Man
TTITLE7=Session Blues
TTITLE8=Can't Get Enough
TTITLE9=Cockroach
TTITLE10=Boogie Worm
EXTD=
EXTT0=
EXTT1=
EXTT2=
EXTT3=
EXTT4=
EXTT5=
EXTT6=
EXTT7=
EXTT8=
EXTT9=
EXTT10=
PLAYORDER=
